<?xml version="1.0" encoding="utf-8"?>
<!-- Generator: Adobe Illustrator 27.2.0, SVG Export Plug-In . SVG Version: 6.00 Build 0)  -->
<svg version="1.1" id="Layer_1" xmlns="http://www.w3.org/2000/svg" xmlns:xlink="http://www.w3.org/1999/xlink" x="0px" y="0px"
	 viewBox="0 0 561 564" style="enable-background:new 0 0 561 564;" xml:space="preserve">
<style type="text/css">
	.st0{fill:#2EF3F3;}
</style>
<g>
	<path class="st0" d="M280,17C133.3,17,14,136.3,14,283s119.3,266,266,266s266-119.3,266-266S426.7,17,280,17z M280,133.5
		c36.4,0,66.1,29.7,66.1,66.1s-29.7,66.1-66.1,66.1s-66.1-29.7-66.1-66.1S243.6,133.5,280,133.5z M388.6,404c0,6.2-5,11.8-11.8,11.8
		l-193.8,0c-6.2,0-11.8-5-11.8-11.8v-7.8c0-59.9,48.7-108.6,108.6-108.6s108.6,48.7,108.6,108.6L388.6,404z"/>
</g>
</svg>
