<?xml version="1.0" encoding="utf-8"?>
<!-- Generator: Adobe Illustrator 27.2.0, SVG Export Plug-In . SVG Version: 6.00 Build 0)  -->
<svg version="1.1" id="Layer_1" xmlns="http://www.w3.org/2000/svg" xmlns:xlink="http://www.w3.org/1999/xlink" x="0px" y="0px"
	 viewBox="0 0 740 684" style="enable-background:new 0 0 740 684;" xml:space="preserve">
<style type="text/css">
	.st0{fill-rule:evenodd;clip-rule:evenodd;fill:#2EF3F3;}
</style>
<g>
	<path class="st0" d="M187.2,106C109,89.1,49.8,95.9,29.1,130.4c-95.4,158.9,587.7,569,683.1,410c22.3-37.1-4.7-98.4-65.1-165
		l-9.8,16.4c97.4,107.9-51.5,66.2-50.5,66.5c163.4-282.4-256.5-538.6-433-264.6c-36.1-41.2-48.1-81.2,22.8-69.9L187.2,106L187.2,106
		z"/>
	<path class="st0" d="M107.4,338.1C95.3,540.8,316.2,675.2,490.7,571.5C357,528.5,206.4,437.5,107.4,338.1L107.4,338.1z"/>
</g>
</svg>
