<?xml version="1.0" encoding="utf-8"?>
<!-- Generator: Adobe Illustrator 27.2.0, SVG Export Plug-In . SVG Version: 6.00 Build 0)  -->
<svg version="1.1" id="Layer_1" xmlns="http://www.w3.org/2000/svg" xmlns:xlink="http://www.w3.org/1999/xlink" x="0px" y="0px"
	 viewBox="0 0 595 590" style="enable-background:new 0 0 595 590;" xml:space="preserve">
<style type="text/css">
	.st0{fill-rule:evenodd;clip-rule:evenodd;fill:#2EF3F3;}
</style>
<g>
	<path class="st0" d="M529.3,55.3c23.8,24.1-0.7,146.2-90.5,236c-25.3,25.3-53,45.3-80.4,60.5l-3.8,1.9l4.8,53.1L288.2,478
		l-7.6-83.4l-39.7,23l-2.3,2.2l-0.6-0.6l-70.8-70.8l-0.6-0.6l2.3-2.2l22.9-39.8l-83.4-7.6l71.2-71.2l52.8,4.8l2.4-4.7
		c15.4-27.2,35.6-54.8,60.9-80.1C385.6,57.2,505.5,31.3,529.3,55.3L529.3,55.3z M446.1,140.4c-15.7-15.7-41.3-15.7-57,0
		c-15.7,15.7-15.7,41.3,0,57c15.7,15.7,41.2,15.7,57,0C461.8,181.6,461.8,156.1,446.1,140.4z"/>
	<path class="st0" d="M75.8,455.5c-4.6-4.6,7.9-24.6,28-44.7c20.1-20.1,40.1-32.6,44.7-28c4.6,4.6-7.9,24.6-28,44.7
		C100.4,447.6,80.4,460.1,75.8,455.5"/>
	<path class="st0" d="M123.7,503.4c-4.6-4.6,7.9-24.6,28-44.7c20.1-20.1,40.1-32.6,44.7-28c4.6,4.6-7.9,24.6-28,44.7
		C148.3,495.5,128.3,508.1,123.7,503.4"/>
	<path class="st0" d="M44.5,534.7c-4.5-4.5,20.6-36.7,55.9-72c35.3-35.3,67.5-60.3,72-55.9c4.5,4.5-20.6,36.7-55.9,72
		C81.2,514.1,49,539.1,44.5,534.7"/>
</g>
</svg>
