<?xml version="1.0" encoding="utf-8"?>
<!-- Generator: Adobe Illustrator 27.2.0, SVG Export Plug-In . SVG Version: 6.00 Build 0)  -->
<svg version="1.1" id="Layer_1" xmlns="http://www.w3.org/2000/svg" xmlns:xlink="http://www.w3.org/1999/xlink" x="0px" y="0px"
	 viewBox="0 0 592 595" style="enable-background:new 0 0 592 595;" xml:space="preserve">
<style type="text/css">
	.st0{fill:#A66FC5;}
</style>
<g>
	<path class="st0" d="M410.6,160.2l12.2-6.1c1.1-0.5,2.2-0.8,3.3-0.8s2.3,0.3,3.3,0.8l12.2,6.1l-6.1-12.2c-1.1-2.1-1.1-4.6,0-6.6
		l6.1-12.2l-12.2,6.1c-2.1,1.1-4.6,1.1-6.6,0l-12.2-6.1l6.1,12.2c1.1,2.1,1.1,4.6,0,6.6L410.6,160.2z"/>
	<path class="st0" d="M185.4,425.3l-17.9,9c-2.1,1.1-4.6,1.1-6.6,0l-17.9-9l9,17.9c1.1,2.1,1.1,4.6,0,6.6l-9,17.9l17.9-9
		c1.1-0.5,2.2-0.8,3.3-0.8s2.3,0.3,3.3,0.8l17.9,9l-9-17.9c-1.1-2.1-1.1-4.6,0-6.6L185.4,425.3z"/>
	<path class="st0" d="M296,20C141.4,20,16,145.4,16,300s125.4,280,280,280s280-125.4,280-280S450.6,20,296,20z M475.8,291
		c0,12.3-10,22.3-22.3,22.3s-22.3-10-22.3-22.3c0-12.3,10-22.3,22.3-22.3C465.8,268.7,475.8,278.7,475.8,291z M387.3,115.8
		c-1.4-2.9-0.9-6.3,1.4-8.6c2.3-2.3,5.7-2.8,8.6-1.4l28.9,14.4l28.9-14.4c2.9-1.4,6.3-0.9,8.6,1.4c2.3,2.3,2.8,5.7,1.4,8.6
		l-14.4,28.9l14.4,28.9c1.4,2.9,0.9,6.3-1.4,8.6c-1.4,1.4-3.3,2.2-5.2,2.2c-1.1,0-2.3-0.3-3.3-0.8l-28.9-14.4l-28.9,14.4
		c-2.9,1.5-6.3,0.9-8.6-1.4c-2.3-2.3-2.8-5.7-1.4-8.6l14.4-28.9L387.3,115.8z M284.6,132.6c-2.9-2.9-2.9-7.6,0-10.5
		c2.9-2.9,7.6-2.9,10.5,0l10.5,10.5l10.5-10.5c2.9-2.9,7.6-2.9,10.5,0c2.9,2.9,2.9,7.6,0,10.5l-10.5,10.5l10.5,10.5
		c2.9,2.9,2.9,7.6,0,10.5c-1.5,1.5-3.4,2.2-5.2,2.2c-1.9,0-3.8-0.7-5.2-2.2l-10.5-10.5l-10.5,10.5c-1.5,1.5-3.4,2.2-5.2,2.2
		c-1.9,0-3.8-0.7-5.3-2.2c-2.9-2.9-2.9-7.6,0-10.5l10.5-10.5L284.6,132.6z M103.9,151.2c0-3.2,2-6,5.1-7.1l36.6-12.2l12.2-36.6
		c2-6.1,12.1-6.1,14.1,0l12.2,36.6l36.6,12.2c3,1,5.1,3.9,5.1,7.1c0,3.2-2,6-5.1,7.1l-36.6,12.2L172,207.1c-1,3-3.9,5.1-7.1,5.1
		c-3.2,0-6-2-7.1-5.1l-12.2-36.6L109,158.2C106,157.2,103.9,154.4,103.9,151.2L103.9,151.2z M177,294.1c2.9,2.9,2.9,7.6,0,10.5
		c-1.5,1.5-3.4,2.2-5.2,2.2c-1.9,0-3.8-0.7-5.3-2.2L156,294.1l-10.5,10.5c-1.5,1.5-3.4,2.2-5.3,2.2s-3.8-0.7-5.2-2.2
		c-2.9-2.9-2.9-7.6,0-10.5l10.5-10.5L135,273c-2.9-2.9-2.9-7.6,0-10.5c2.9-2.9,7.6-2.9,10.5,0L156,273l10.5-10.5
		c2.9-2.9,7.6-2.9,10.5,0c2.9,2.9,2.9,7.6,0,10.5l-10.5,10.5L177,294.1z M208.6,481c1.4,2.9,0.9,6.3-1.4,8.6
		c-1.4,1.4-3.3,2.2-5.2,2.2c-1.1,0-2.3-0.3-3.3-0.8l-34.5-17.3L129.6,491c-2.9,1.4-6.3,0.9-8.6-1.4c-2.3-2.3-2.8-5.7-1.4-8.6
		l17.3-34.5l-17.3-34.5c-1.4-2.9-0.9-6.3,1.4-8.6c2.3-2.3,5.7-2.8,8.6-1.4l34.5,17.3l34.5-17.3c2.9-1.4,6.3-0.9,8.6,1.4
		c2.3,2.3,2.8,5.7,1.4,8.6l-17.3,34.5L208.6,481z M282.1,449.3c2.9,2.9,2.9,7.6,0,10.5c-1.5,1.5-3.4,2.2-5.2,2.2
		c-1.9,0-3.8-0.7-5.3-2.2L261,449.3l-10.5,10.5c-1.5,1.5-3.4,2.2-5.3,2.2s-3.8-0.7-5.2-2.2c-2.9-2.9-2.9-7.6,0-10.5l10.5-10.5
		L240,428.3c-2.9-2.9-2.9-7.6,0-10.5c2.9-2.9,7.6-2.9,10.5,0l10.5,10.5l10.5-10.5c2.9-2.9,7.6-2.9,10.5,0c2.9,2.9,2.9,7.6,0,10.5
		l-10.5,10.5L282.1,449.3z M260.7,386c-4.8,4.4-11.1,7.1-18.1,7.1c-10.4,0-19.3-5.9-23.8-14.5c-4.6,0.6-8.8,0.9-12.6,0.9
		c-19.4,0-27.9-6.9-31.7-13.4c-8.5-14.4,0.7-35.8,26.3-61.7c-0.6-4.4-1.1-8.9-1.1-13.4c0-57.9,47.1-105,105-105
		c15.3,0,30.2,3.7,43.9,10c4.9-4.6,11.4-7.2,18.3-7.2c10.1,0,19,5.9,23.6,14.6c28.3-3.5,39.9,4.6,44.4,12.5
		c8.5,14.4-0.7,35.8-26.3,61.7c0.6,4.4,1.1,8.9,1.1,13.4c0,57.9-47.1,105-105,105C289.4,395.9,274.6,392.5,260.7,386L260.7,386z
		 M505.6,417.4c0,3.2-2,6-5.1,7.1L453.8,440l-15.6,46.7c-1,3-3.9,5.1-7.1,5.1c-3.2,0-6-2-7.1-5.1L408.6,440l-46.7-15.6
		c-3-1-5.1-3.9-5.1-7.1c0-3.2,2-6,5.1-7.1l46.7-15.6l15.6-46.7c2-6.1,12.1-6.1,14.1,0l15.6,46.7l46.7,15.6
		C503.5,411.4,505.6,414.2,505.6,417.4L505.6,417.4z"/>
	<path class="st0" d="M422,223.4c-2.4-4.1-11.1-7.4-28.4-5.4c-0.4,4.3-1.7,8.4-3.9,12c6.6,9.2,11.7,19.3,15.1,30.1
		C420.7,242,425.2,228.9,422,223.4L422,223.4z"/>
	<path class="st0" d="M158.6,162.2l6.3,19l6.3-19c0.7-2.2,2.5-4,4.7-4.7l19-6.3l-19-6.3c-2.2-0.7-4-2.5-4.7-4.7l-6.3-19l-6.3,19
		c-0.7,2.2-2.5,4-4.7,4.7l-19,6.3l19,6.3C156.1,158.2,157.9,160,158.6,162.2L158.6,162.2z"/>
	<path class="st0" d="M460.9,291c0,4.1-3.3,7.4-7.4,7.4s-7.4-3.3-7.4-7.4c0-4.1,3.3-7.4,7.4-7.4S460.9,286.9,460.9,291"/>
	<path class="st0" d="M378.7,217.1c0.1-0.4,0.3-0.8,0.3-1.3c0-0.8-0.1-1.7-0.3-2.7c-1.2-5.4-6.2-9.3-11.7-9.3
		c-1.2,0-2.2,0.5-3.3,0.8c2.7,1.8,5.5,3.4,8,5.5C374.2,212.2,376.3,214.7,378.7,217.1L378.7,217.1z"/>
	<path class="st0" d="M394.8,290.4c-18,15.8-40.1,31.6-64.2,45.4c-20.4,11.7-41.3,21.7-61.1,29.2c0,0.4,0.1,0.7,0.1,1.1
		c0,2.5-0.4,4.8-1.1,7.1c11.5,5.1,23.6,7.8,36.2,7.8c49.7,0,90.1-40.4,90.1-90.1C394.8,290.8,394.8,290.6,394.8,290.4L394.8,290.4z"
		/>
	<path class="st0" d="M392.6,272.4c-4.2-19.8-14.7-37.8-30.5-50.9c-16.1-13.3-36.5-20.6-57.4-20.6c-49.7,0-90.1,40.4-90.1,90.1
		c0,4.9,0.4,9.9,1.3,14.8c2.2,13.2,7.4,25.5,14.9,36.3c3.6-1.8,7.6-2.9,11.9-2.9c9.2,0,17.3,4.7,22.2,11.7
		c18.9-7.2,38.9-16.7,58.3-28C349.9,307.5,374.3,289.7,392.6,272.4L392.6,272.4z"/>
	<path class="st0" d="M187.5,358.6c2.4,4.1,11.1,7.4,28.4,5.4c0.4-4.3,1.7-8.3,3.8-11.8c-6.6-9.1-11.8-19.2-15.2-30
		C188.8,340.1,184.3,353.1,187.5,358.6L187.5,358.6z"/>
	<path class="st0" d="M440.9,403l-9.7-29l-9.7,29c-0.7,2.2-2.5,4-4.7,4.7l-29,9.7l29,9.7c2.2,0.7,4,2.5,4.7,4.7l9.7,29l9.7-29
		c0.7-2.2,2.5-4,4.7-4.7l29-9.7l-29-9.7C443.3,407,441.6,405.3,440.9,403z"/>
	<path class="st0" d="M242.7,354.1c-6.6,0-12.1,5.4-12.1,12.1c0,6.6,5.4,12.1,12.1,12.1c6.6,0,12.1-5.4,12.1-12.1
		C254.7,359.5,249.3,354.1,242.7,354.1z"/>
</g>
</svg>
